<?xml version="1.0" encoding="UTF-8"?>
<!-- Generator: Adobe Illustrator 18.1.0, SVG Export Plug-In . SVG Version: 6.00 Build 0)  -->
<svg version="1.1" id="Layer_1" xmlns="http://www.w3.org/2000/svg" xmlns:xlink="http://www.w3.org/1999/xlink" x="0px" y="0px" viewBox="0 0 116 105.3" enable-background="new 0 0 116 105.3" xml:space="preserve">
<g>
	<path fill="#DCB91C" d="M87,36.4c0,0-3.2,1.7-25.1-20.4C62,16,86,30.5,87,36.4"/>
	<path fill="#DCB91C" d="M81.5,0c6.9,10.8,11.8,43.2,7.4,35.7c-3.5-5.9-8.6-7.7-6.5-15.3C85.1,10.7,81.1-0.6,81.5,0"/>
	<path fill="#DCB91C" d="M90.8,37.6c0,0,1.3-2.4,1.2-6.8c-0.2-5.5,1.3-8.6,4.5-13.2c3.2-4.6,4.6-11.1,4.7-13.1   c0,0,1.9,17.5-5.9,26.9c7.7-10,13.6-5.4,18-9.3c0,0-3.4,7-17.3,11.9C92.1,35.3,90.8,37.6,90.8,37.6"/>
	<path fill="#DCB91C" d="M92,37.8c0,0,2.9-2.6,7.7-2.9c6.5-0.4,10.2,5.4,16.3,5.3c0,0-7.5,4.1-16.2-1.5C95.5,35.9,92,37.8,92,37.8"/>
	<path fill="#DCB91C" d="M45.4,31.8c0,0,4,6.3,28.5,10.9c20.8,3.9,26.3,5.8,27.6,15c0,0,7.9-20.9-29.8-21.3   C53.4,36.2,45.4,31.8,45.4,31.8"/>
	<path fill="#FFFFFF" d="M28.6,50.6v-8.2h-1.1c-0.4,0-0.7,0.1-1,0.4c-0.3,0.3-0.5,0.6-0.6,0.9c-0.1,0.4-0.2,0.7-0.2,1.2h-0.4v-2.8   h7.9v2.8h-0.4c0-0.7-0.2-1.2-0.5-1.7c-0.3-0.5-0.7-0.7-1.3-0.7h-1.1v8.2h1.4v0.3h-4.1v-0.3H28.6z"/>
	<polygon fill="#FFFFFF" points="40.4,46.2 40.4,42.4 39.3,42.4 39.3,42.1 43,42.1 43,42.4 41.9,42.4 41.9,50.6 43,50.6 43,50.9    39.3,50.9 39.3,50.6 40.4,50.6 40.4,46.5 36.6,46.5 36.6,50.6 37.7,50.6 37.7,50.9 34,50.9 34,50.6 35.2,50.6 35.2,42.4 34,42.4    34,42.1 37.7,42.1 37.7,42.4 36.6,42.4 36.6,46.2  "/>
	<path fill="#FFFFFF" d="M44.9,50.6v-8.2h-1.2v-0.3h7.1l0.1,2.7h-0.3c0-0.3-0.1-0.5-0.1-0.7c0-0.2-0.1-0.4-0.2-0.6   c-0.1-0.2-0.2-0.3-0.2-0.4c-0.1-0.1-0.2-0.2-0.3-0.3c-0.1-0.1-0.3-0.2-0.4-0.2c-0.1,0-0.3-0.1-0.6-0.1c-0.2,0-0.5,0-0.8-0.1   c-0.3,0-0.6,0-1,0h-0.6v3.8H47c0.7,0,1.1-0.1,1.3-0.4c0.2-0.3,0.3-0.8,0.2-1.5h0.4v4.2h-0.4c0-0.3,0-0.5,0-0.7c0-0.2,0-0.3-0.1-0.5   c0-0.2-0.1-0.3-0.1-0.4c-0.1-0.1-0.2-0.2-0.3-0.2c-0.1-0.1-0.3-0.1-0.4-0.1c-0.2,0-0.4,0-0.6,0h-0.7v4h1.9c0.9,0,1.6-0.2,2-0.7   c0.4-0.4,0.7-1.1,0.8-2.1h0.3l-0.1,3h-7.4v-0.3H44.9z"/>
	<path fill="#DCB91C" d="M24,66.2v-0.8h9v0.8h-2.5v7.8c-2.7,1.4-5.5,2.2-8.2,2.2c-3.2,0-5.7-1-7.5-3.1C12.9,71.1,12,68.4,12,65   c0-3.3,1-6,2.9-8.1c1.9-2.1,4.5-3.1,7.7-3.1c2.2,0,4.6,0.6,7.2,1.8v6.1h-0.7c-0.2-2-1-3.7-2.3-5c-1.3-1.3-2.8-1.9-4.6-1.9   c-4.1,0-6.2,3.4-6.2,10.2c0,1,0,1.9,0.1,2.7c0.1,0.8,0.2,1.7,0.5,2.7c0.2,1,0.6,1.8,1,2.5c0.4,0.7,1.1,1.2,1.8,1.7   c0.8,0.5,1.8,0.7,2.9,0.7c1.5,0,2.7-0.3,3.6-1c0.9-0.6,1.3-1.6,1.3-2.8v-5.3H24z"/>
	<path fill="#DCB91C" d="M49.7,65.1c0-1.2,0-2.2-0.1-3.1c-0.1-0.9-0.2-1.8-0.5-2.8c-0.3-0.9-0.6-1.7-1-2.3c-0.4-0.6-1-1.1-1.7-1.5   c-0.7-0.4-1.6-0.6-2.6-0.6c-1,0-1.9,0.2-2.6,0.6c-0.7,0.4-1.3,0.9-1.7,1.5c-0.4,0.6-0.8,1.4-1,2.3c-0.3,1-0.4,1.9-0.5,2.8   c-0.1,0.9-0.1,1.9-0.1,3.1c0,1.5,0.1,2.8,0.2,3.9c0.1,1.1,0.4,2.1,0.8,3.2c0.4,1,1,1.8,1.8,2.4c0.8,0.5,1.9,0.8,3.1,0.8   c1.3,0,2.3-0.3,3.1-0.8c0.8-0.5,1.5-1.3,1.8-2.4c0.4-1,0.6-2.1,0.8-3.2C49.7,67.9,49.7,66.6,49.7,65.1 M34.4,69.1   c-0.4-1.3-0.6-2.6-0.6-4c0-1.4,0.2-2.7,0.6-4c0.4-1.3,1-2.5,1.8-3.6c0.8-1.1,1.8-2,3.1-2.6c1.3-0.7,2.8-1,4.5-1   c1.7,0,3.2,0.3,4.5,1c1.3,0.7,2.4,1.5,3.1,2.6c0.8,1.1,1.4,2.3,1.8,3.6c0.4,1.3,0.6,2.6,0.6,4c0,1.4-0.2,2.7-0.6,4   c-0.4,1.3-1,2.5-1.8,3.6c-0.8,1.1-1.8,2-3.1,2.6c-1.3,0.7-2.8,1-4.5,1c-1.7,0-3.2-0.3-4.5-1c-1.3-0.7-2.4-1.5-3.1-2.6   C35.4,71.6,34.8,70.4,34.4,69.1"/>
	<path fill="#DCB91C" d="M56.6,75.1V55h-2.8v-0.8h9.1V55H60v20.2h5c1.8,0,3.2-0.5,4.2-1.5c1-1,1.7-2.9,2.1-5.8h0.7v8H53.7v-0.8H56.6   z"/>
	<path fill="#DCB91C" d="M78,55v20.2h5.1c2.1,0,3.7-1,4.8-2.9c1-1.9,1.6-4.3,1.6-7.2c0-6.7-2.1-10.1-6.2-10.1H78z M74.5,75.1V55   h-2.8v-0.8h12.1c3.1,0,5.4,1,7,2.9c1.6,1.9,2.4,4.6,2.4,8c0,1.5-0.2,2.8-0.5,4c-0.3,1.2-0.8,2.4-1.5,3.4c-0.7,1-1.7,1.9-2.9,2.5   c-1.3,0.6-2.7,0.9-4.4,0.9H71.7v-0.8H74.5z"/>
	<polygon fill="#FFFFFF" points="14.4,105.3 2.9,70.8 0,70.8 0,69.9 10.9,69.9 10.9,70.8 7.2,70.8 16.2,99 16.3,99 22.6,80.1    18.9,80.1 18.9,79.2 26.5,79.2 26.5,80.1 23.9,80.1 15.2,105.3  "/>
	<polygon fill="#FFFFFF" points="30.8,103.9 30.8,80.1 27.4,80.1 27.4,79.2 38.3,79.2 38.3,80.1 34.9,80.1 34.9,103.9 38.3,103.9    38.3,104.8 27.4,104.8 27.4,103.9  "/>
	<path fill="#FFFFFF" d="M43.5,103.9V80.1h-3.4v-0.9h20.5l0.2,7.9h-0.9c-0.1-0.8-0.3-1.5-0.4-2.1c-0.1-0.6-0.3-1.1-0.6-1.6   c-0.2-0.5-0.5-0.9-0.7-1.2c-0.2-0.3-0.6-0.6-1-0.9c-0.4-0.3-0.8-0.5-1.3-0.6c-0.4-0.1-1-0.2-1.7-0.3c-0.7-0.1-1.4-0.1-2.2-0.2   c-0.7,0-1.7,0-2.8,0h-1.7v11.1h1.9c2,0,3.2-0.4,3.7-1.1c0.5-0.7,0.7-2.2,0.7-4.3H55V98h-1.1c0-0.9,0-1.5,0-2c0-0.5-0.1-0.9-0.2-1.5   c-0.1-0.5-0.2-0.9-0.4-1.1c-0.2-0.2-0.4-0.4-0.8-0.6c-0.3-0.2-0.7-0.3-1.2-0.4c-0.5-0.1-1.1-0.1-1.8-0.1h-1.9v11.6H53   c2.6,0,4.5-0.6,5.7-1.9c1.2-1.3,2-3.3,2.4-6h1l-0.3,8.8H40.1v-0.9H43.5z"/>
	<polygon fill="#FFFFFF" points="72.7,105.3 65,80.1 62.2,80.1 62.2,79.2 72.9,79.2 72.9,80.1 69.3,80.1 74.6,98.2 74.6,98.2    79.8,80.1 76.4,80.1 76.4,79.2 87.9,79.2 87.9,80.1 84.2,80.1 88.9,98.2 89,98.2 98.1,71.1 94.6,71.1 94.6,70.2 102.2,70.2    102.2,71.1 99.2,71.1 87.6,105.3 86.8,105.3 80.6,81.8 80.5,81.8 73.5,105.3  "/>
</g>
</svg>